<?xml version="1.0" encoding="utf-8"?>
<svg viewBox="0 0 500 500" xmlns="http://www.w3.org/2000/svg">
  <title>Codewars icon</title>
  <path d="M 37.098 255.486 L 35.595 254.734 C 32.215 252.857 29.586 250.04 27.708 246.473 C 25.079 241.59 23.952 237.082 23.952 232.388 L 24.328 229.947 C 24.328 226.191 25.266 222.811 26.956 219.618 L 28.459 216.801 C 29.211 215.299 30.338 213.983 31.276 212.669 C 32.404 211.355 32.591 209.665 32.215 208.162 L 31.276 205.158 C 30.149 201.402 29.398 197.646 29.398 193.89 L 28.835 191.638 C 28.835 187.506 29.962 183.375 32.591 180.37 L 34.469 177.929 C 35.784 176.05 37.849 174.923 40.102 174.173 C 41.981 173.609 43.295 171.732 43.482 169.477 L 43.858 163.093 C 43.858 158.023 46.3 153.327 50.055 149.947 L 54.563 146.567 C 55.501 145.628 56.44 144.69 57.191 143.187 C 58.13 142.06 58.318 140.558 58.13 139.431 C 57.755 137.554 58.13 136.99 59.07 136.802 C 62.074 137.928 63.951 137.554 65.267 136.051 L 67.707 132.858 L 74.469 125.346 C 76.346 123.469 77.097 120.089 75.97 117.459 L 73.717 112.576 C 73.341 111.451 73.717 110.136 74.656 109.761 C 77.097 109.761 78.787 110.699 79.539 112.202 L 80.29 113.516 C 81.416 115.769 84.046 116.896 85.923 115.958 C 90.054 114.455 93.434 114.079 96.627 114.079 L 102.638 114.079 C 106.768 114.079 110.149 111.262 110.899 106.943 C 111.65 101.685 113.529 97.553 116.158 94.738 C 118.975 91.545 122.166 89.103 125.924 87.224 C 130.805 84.596 133.811 80.84 134.749 75.957 C 136.064 69.949 139.257 65.63 143.575 62.813 L 157.847 54.737 L 161.978 52.295 C 164.42 50.794 166.674 48.915 168.551 46.662 L 172.307 42.155 C 174.186 40.278 176.063 38.962 178.317 38.399 C 180.194 37.837 182.823 37.461 185.077 37.648 L 192.589 38.212 C 196.345 38.212 199.349 39.151 202.353 40.465 L 204.232 41.404 C 206.109 42.155 207.988 41.779 208.926 40.465 L 210.616 39.527 L 218.692 31.075 C 220.569 29.198 222.824 28.446 225.265 28.822 C 227.705 29.198 230.147 30.136 232.401 31.264 C 235.781 33.141 238.598 33.892 241.79 33.892 L 243.668 33.892 C 247.8 33.892 251.931 34.457 256.063 35.395 L 258.878 36.147 C 261.696 36.897 264.513 35.771 266.39 33.516 C 266.954 32.578 268.269 32.391 269.02 33.141 C 269.583 33.516 269.772 33.892 269.959 34.457 C 270.334 38.212 272.587 41.028 275.593 41.968 L 278.597 42.907 C 281.789 43.845 284.606 45.911 286.485 48.54 C 288.362 51.357 290.616 54.174 293.245 56.051 L 295.123 57.93 C 297 59.808 299.629 60.558 302.259 60.371 L 313.338 60.371 C 317.845 60.371 322.165 61.123 326.484 63 C 330.615 64.878 334.934 65.254 338.878 63.751 C 343.01 62.437 347.328 61.873 351.648 62.437 L 359.723 63.751 C 363.479 64.127 367.234 66.004 369.487 68.821 L 370.427 69.76 C 372.304 71.639 374.183 74.08 376.06 76.709 C 377.187 79.15 379.816 80.464 382.446 80.464 L 394.089 80.464 C 396.905 80.464 399.722 81.029 401.976 82.343 C 404.416 84.22 406.482 86.099 408.361 87.976 L 410.238 90.417 C 412.492 93.046 413.619 96.615 413.431 100.37 C 413.431 103.375 415.685 106.005 418.689 106.005 L 422.445 106.381 C 425.074 106.381 427.328 108.258 428.642 110.699 L 430.52 114.455 L 435.403 125.346 C 436.154 127.225 436.341 129.102 436.154 130.605 C 436.154 132.482 436.717 133.985 438.031 134.737 L 439.91 136.051 C 442.351 137.928 443.666 140.745 443.29 143.938 L 441.976 152.764 L 441.6 156.52 C 441.224 158.398 442.163 160.84 443.853 162.154 C 446.67 164.031 447.984 166.473 448.173 169.29 L 448.173 173.046 C 448.173 174.923 447.797 177.177 446.294 178.679 C 445.168 180.182 444.417 182.06 444.417 184.313 L 444.98 188.632 C 444.98 191.638 446.858 194.266 448.736 196.143 C 451.364 198.022 452.867 201.026 453.243 204.03 C 453.994 208.726 454.181 212.482 454.181 216.238 L 454.181 220.556 C 454.181 222.059 454.181 223.561 454.746 225.064 C 455.12 226.378 456.06 227.692 457.186 228.444 L 460.941 231.261 C 464.697 233.702 467.327 236.895 468.829 241.214 C 470.707 245.345 471.27 249.664 471.27 253.984 L 471.27 255.486 C 471.27 258.866 470.894 262.434 469.769 265.627 C 468.829 269.007 469.017 272.199 470.332 275.016 C 471.835 277.646 472.773 280.65 473.149 283.842 C 473.9 287.597 473.525 291.355 472.21 294.359 L 471.835 295.673 C 470.894 297.926 469.393 299.992 467.514 301.682 C 465.637 303.561 463.759 304.688 462.633 306.002 C 461.506 307.128 460.754 309.006 461.317 310.696 L 461.882 313.325 C 462.82 317.081 462.82 320.837 461.882 324.218 L 461.882 325.72 C 461.13 328.537 460.003 330.978 458.876 333.231 C 457.561 335.673 455.684 337.551 453.243 338.865 L 450.426 340.743 C 449.111 341.494 448.173 343.184 448.173 344.874 C 448.173 346.753 447.421 348.63 446.294 349.757 L 443.477 353.513 C 441.6 355.954 439.158 358.02 436.53 359.147 C 433.9 361.024 431.647 362.903 429.957 364.78 C 428.078 367.035 426.577 369.663 425.825 372.292 C 425.074 375.672 422.445 377.55 419.628 377.55 L 409.488 377.55 C 406.858 377.55 404.416 379.427 403.291 381.682 C 401.976 384.686 400.661 386.752 398.971 388.631 C 397.093 390.508 395.966 392.76 395.215 395.391 C 394.839 397.643 392.962 399.146 391.083 398.395 C 388.643 397.268 386.202 398.395 385.075 400.274 C 382.822 404.029 380.567 406.845 378.126 409.286 L 376.812 410.414 C 374.37 412.291 371.179 413.794 368.362 413.794 C 364.982 413.794 363.292 415.297 362.727 417.549 C 362.164 419.428 361.789 421.868 361.6 423.934 C 361.226 426.188 360.474 428.254 359.723 430.131 L 358.784 431.258 C 356.906 434.075 355.404 436.893 353.526 439.333 L 352.774 440.46 C 350.333 443.653 347.141 446.094 343.385 447.033 C 338.878 448.536 334.934 448.911 330.991 448.911 L 328.362 448.911 C 326.484 448.911 324.605 450.037 323.291 451.916 L 322.165 453.793 L 321.038 456.047 L 318.596 460.179 C 316.719 463.559 313.902 465.812 310.146 466.939 C 306.391 467.877 302.07 468.253 298.128 468.066 L 295.123 467.69 C 292.493 467.69 290.052 466.939 287.61 465.812 C 285.733 465.06 283.105 465.812 281.977 467.69 C 280.099 470.319 277.846 471.822 275.404 472.572 L 269.772 474.45 C 266.016 475.389 261.884 475.389 257.94 474.45 L 254.936 473.512 C 253.057 473.512 251.18 472.572 249.677 471.633 C 247.8 470.695 245.921 470.319 244.044 470.506 L 241.602 470.882 C 237.847 471.257 234.467 470.882 231.087 469.943 L 226.015 468.816 C 223.762 468.066 221.696 466.563 220.382 464.497 C 219.444 462.62 217.378 461.117 214.748 460.742 L 208.739 460.742 C 204.983 460.179 201.603 458.863 199.349 456.047 L 191.837 448.911 L 189.209 446.657 L 185.077 443.653 L 182.636 441.774 C 179.819 439.897 176.439 438.394 172.87 438.018 L 161.603 436.141 C 160.477 436.141 159.726 435.765 158.598 435.577 L 154.28 434.638 C 152.401 434.263 150.524 432.761 149.21 430.883 C 148.083 429.005 146.017 428.254 144.138 429.005 C 140.382 430.507 137.378 430.883 134.374 431.447 L 131.745 431.447 C 126.862 431.821 122.355 431.071 117.848 429.005 C 113.34 427.127 110.336 424.31 107.519 420.742 C 105.266 417.549 101.886 415.108 97.755 414.357 L 92.496 413.231 C 88.74 412.479 84.984 410.976 81.604 408.724 C 77.849 406.095 75.97 403.654 74.469 400.648 C 72.966 397.832 72.027 394.639 71.838 391.259 L 71.838 389.756 C 71.464 386 68.834 382.62 65.267 381.682 C 60.947 380.368 57.755 378.489 54.938 376.047 C 52.308 373.606 50.807 370.039 50.807 366.283 L 51.182 358.02 C 51.182 354.827 50.242 352.01 47.99 349.944 C 45.737 347.691 44.234 344.874 44.234 341.87 L 43.671 335.11 C 43.295 330.227 42.355 325.344 41.229 320.462 C 40.102 316.142 41.792 311.824 45.361 309.758 L 46.675 308.819 C 48.552 307.503 49.304 305.062 48.178 302.809 L 46.675 300.932 C 44.797 299.053 42.919 297.739 41.041 297.176 C 39.539 296.801 39.164 295.298 39.164 294.359 L 41.041 292.105 C 42.168 290.79 41.981 288.725 41.041 287.597 C 39.539 286.096 38.788 284.217 38.599 282.34 L 38.225 269.194 C 38.225 266.566 38.599 263.937 39.351 261.307 C 40.102 259.054 39.351 256.424 37.098 255.298 Z M 223.011 230.698 C 224.325 229.382 224.138 226.942 223.011 226.002 C 221.134 224.501 219.818 222.811 218.692 220.932 L 216.813 217.928 C 215.499 215.486 213.809 213.421 211.931 211.544 L 211.556 211.168 C 209.678 209.665 208.363 207.786 207.236 205.533 C 206.298 203.656 206.298 201.778 207.236 199.901 L 208.363 198.022 C 209.491 196.143 210.241 193.515 210.241 191.262 L 210.241 190.51 C 210.241 188.632 209.491 186.755 208.363 184.876 C 207.612 183.375 206.86 181.496 206.485 179.619 L 206.485 178.492 C 205.922 176.239 206.485 173.797 207.988 171.919 C 209.491 169.477 210.616 167.224 211.181 164.407 L 211.181 164.031 C 211.931 162.154 211.556 159.713 210.429 157.834 C 209.302 155.957 208.926 154.078 209.678 151.825 L 210.992 148.07 C 212.119 144.69 213.809 141.684 216.062 139.055 L 218.692 136.238 L 220.569 133.985 L 221.696 132.858 C 222.824 131.732 223.011 129.854 222.072 128.351 C 221.134 126.474 220.569 124.595 220.945 122.718 L 221.321 120.089 C 221.884 116.332 223.199 112.576 225.639 109.572 L 226.391 108.82 C 229.208 105.065 232.777 102.625 236.908 101.309 L 241.978 99.432 C 244.231 98.68 245.734 96.239 245.734 93.797 C 245.734 90.793 246.673 88.165 248.363 85.723 L 249.301 84.785 C 251.18 81.592 253.433 78.399 254.936 75.019 L 256.25 72.577 C 256.626 72.014 256.813 71.263 256.813 70.7 C 256.813 67.507 254.936 64.69 251.931 64.503 L 243.668 63.938 C 238.972 63.564 234.278 63.938 229.771 63.938 L 213.809 65.817 C 211.368 65.817 209.491 67.694 209.302 70.324 C 209.302 72.953 207.425 75.207 205.17 75.957 L 198.41 77.836 L 196.532 78.399 L 190.899 80.277 C 186.767 81.592 183.387 84.596 181.509 88.727 L 180.007 91.169 C 178.129 95.3 174.936 98.68 170.993 101.122 C 167.237 103.563 165.358 107.506 164.983 112.013 L 164.983 113.892 C 164.609 117.648 163.481 121.404 161.227 124.032 L 160.288 125.535 C 158.787 127.412 158.411 129.854 159.35 131.919 C 160.288 134.172 160.853 136.614 160.664 139.055 L 160.664 149.008 C 160.664 151.637 158.787 153.891 156.908 154.643 C 154.28 155.581 152.59 157.647 151.838 160.276 L 150.9 164.031 C 150.148 167.787 151.463 171.543 154.655 173.797 C 157.66 176.05 159.537 179.43 160.288 183.562 L 160.288 186.942 C 160.853 190.697 162.918 194.453 166.299 196.332 C 169.679 198.585 172.307 201.965 173.81 205.722 L 174.749 208.726 C 176.252 212.858 179.632 215.299 183.387 215.674 L 184.513 215.674 C 187.895 215.674 190.899 217.552 192.776 220.556 C 194.655 223.561 197.659 225.627 201.039 226.191 L 206.298 227.692 C 209.491 228.632 212.495 230.322 214.936 232.764 L 215.312 233.138 C 217.189 234.641 220.194 234.454 221.884 232.388 L 223.199 230.885 Z M 244.42 213.421 C 246.297 214.548 248.175 213.983 248.925 212.293 L 249.49 211.355 C 250.804 208.726 252.494 206.096 254.373 203.843 L 258.128 198.209 C 258.691 198.209 258.878 197.835 259.067 197.459 L 263.574 191.449 C 265.451 189.572 267.706 188.258 270.334 188.258 C 272.776 188.258 274.842 186.942 275.967 184.5 C 276.719 181.872 277.846 179.43 280.099 177.364 L 281.039 176.239 C 282.916 174.36 284.795 173.422 286.672 172.483 C 289.113 172.107 291.368 171.732 293.62 171.732 L 299.253 171.732 C 301.508 171.732 303.385 170.791 304.512 168.914 C 305.639 167.036 307.329 165.721 309.206 164.783 L 311.085 164.031 C 314.089 162.717 317.469 161.779 320.849 161.403 L 324.605 161.027 C 326.859 161.027 329.301 161.027 331.554 162.341 C 333.432 163.656 335.874 163.469 337.751 161.966 L 339.065 161.214 C 341.883 159.337 345.076 157.834 348.456 157.458 L 348.831 157.458 C 352.587 156.708 355.967 156.708 359.723 156.896 L 361.6 156.896 C 365.357 157.458 368.549 158.774 370.99 161.59 L 371.553 162.341 C 373.432 164.22 376.436 165.721 379.064 165.721 L 382.257 165.721 C 383.196 165.721 384.136 165.346 384.699 164.407 C 385.262 163.844 386.202 163.28 387.14 163.28 L 389.017 163.28 C 391.648 163.28 394.089 164.031 396.531 164.783 L 399.722 166.097 C 402.726 167.036 405.919 167.976 409.112 168.351 L 411.365 168.351 C 412.868 168.351 413.806 167.411 413.806 166.097 C 413.806 164.22 413.431 162.341 412.492 160.84 L 411.178 157.834 C 409.675 155.393 408.548 152.764 407.422 150.323 L 407.046 149.384 C 406.108 147.505 406.108 145.628 407.046 143.75 L 407.046 142.811 C 407.422 141.31 406.671 139.62 405.168 139.055 L 403.666 139.055 C 400.661 138.117 398.032 136.427 396.155 133.985 L 394.276 132.107 C 392.399 130.229 391.272 127.412 390.52 124.595 C 389.582 122.154 387.516 120.276 384.886 120.276 L 377 120.276 C 374.183 119.901 371.742 118.398 370.052 116.145 L 369.3 115.206 C 367.986 113.328 366.859 111.075 366.107 108.82 C 365.169 106.943 363.103 105.816 361.226 106.381 L 358.971 107.13 C 355.216 108.446 351.46 109.009 347.704 108.633 L 344.7 108.258 C 341.507 108.258 338.503 106.943 336.061 105.065 L 334.184 103.75 C 332.681 102.625 331.178 101.873 329.488 101.122 C 327.611 100.37 326.108 100.746 324.981 102.06 L 324.042 103.188 C 322.165 105.065 319.535 106.568 316.906 106.943 L 306.766 107.506 C 304.888 107.506 303.011 108.446 301.695 109.761 C 300.193 111.075 298.503 112.013 296.625 112.389 L 296.249 112.389 C 294.372 112.389 292.493 113.703 290.616 115.018 L 290.616 115.393 C 288.737 117.272 286.296 118.211 283.854 118.211 L 283.105 118.586 C 280.85 118.586 278.597 118.586 276.343 119.149 L 274.09 119.149 C 270.897 119.714 268.456 122.342 267.706 125.722 L 266.954 130.041 C 266.39 133.047 265.076 135.675 263.199 138.117 C 261.32 140.37 259.067 141.872 256.25 141.872 L 253.433 141.872 L 253.057 141.872 C 251.18 142.248 249.301 144.314 249.677 146.567 C 250.053 149.76 249.677 152.577 249.114 155.393 L 248.363 158.586 C 247.611 161.403 245.734 163.656 243.293 164.596 L 242.165 165.159 L 241.79 165.159 C 240.664 165.91 239.912 167.6 240.851 168.914 C 241.978 170.791 242.354 172.67 242.165 174.549 L 241.602 180.557 C 241.602 182.81 240.664 184.876 239.724 186.755 C 238.598 188.632 238.598 190.51 239.348 192.387 L 241.227 196.519 C 242.165 198.398 242.354 200.275 241.79 202.529 C 241.227 204.406 240.851 206.285 241.038 208.162 C 241.038 210.041 242.165 211.918 243.668 212.669 L 244.044 213.045 Z M 392.773 349.194 C 394.652 351.071 397.469 351.823 399.722 350.32 L 403.478 347.878 C 405.356 346.564 406.858 344.687 407.609 342.246 L 407.609 341.87 L 409.488 336.235 L 410.614 334.358 L 411.365 332.48 L 412.116 331.165 C 412.868 329.664 413.995 328.537 415.872 327.974 L 416.624 327.598 C 418.125 327.222 419.065 325.72 419.065 324.218 C 419.065 322.339 420.004 320.837 420.942 319.522 L 422.445 318.208 L 426.201 313.325 L 426.201 312.949 C 427.328 311.448 428.078 309.758 428.454 307.879 C 428.83 306.002 428.454 304.123 427.702 302.246 L 427.328 301.495 C 426.577 299.616 426.201 298.302 426.012 296.612 L 425.45 291.355 L 424.887 285.72 C 424.887 283.842 425.638 281.965 426.764 280.086 C 428.078 278.585 429.018 276.706 429.768 274.829 L 429.768 274.077 L 430.144 273.702 C 430.52 271.824 429.581 269.946 427.891 269.946 C 426.012 269.007 424.135 267.504 423.572 265.252 L 423.008 264.124 C 422.069 260.744 421.507 257.364 421.507 253.984 L 421.881 244.594 L 421.881 244.031 C 421.881 240.838 419.252 238.397 416.248 238.397 L 415.872 238.397 C 412.116 238.397 409.112 237.27 406.482 234.641 L 404.981 232.764 L 401.225 228.444 L 396.342 222.811 C 394.465 220.181 392.586 217.928 390.145 215.674 C 388.268 213.796 385.45 211.918 382.633 211.544 L 378.877 210.979 C 377 210.603 374.559 209.665 372.493 208.351 C 370.99 207.223 368.737 207.599 367.234 209.102 L 364.793 211.731 L 363.666 212.482 C 362.351 212.858 361.037 212.106 360.474 210.603 C 359.723 208.351 359.723 205.722 360.85 203.468 L 360.85 202.34 C 360.85 201.026 359.723 200.088 358.596 200.463 L 355.591 200.463 C 352.211 200.463 348.831 200.088 345.638 198.585 L 343.761 197.835 C 341.883 196.895 339.63 196.332 337.564 196.332 C 335.685 196.332 333.808 196.708 331.93 197.835 L 331.178 198.398 C 328.925 199.901 326.297 200.65 323.667 200.839 L 317.469 200.839 C 314.654 200.839 311.836 201.778 309.958 203.281 C 307.516 204.782 304.888 205.722 302.07 206.285 L 297 207.036 C 294.748 207.599 292.306 208.538 290.24 210.228 C 288.362 212.106 285.733 213.234 283.292 213.983 L 282.353 214.359 C 279.349 215.299 276.719 217.176 274.842 219.994 L 272.587 222.246 C 271.273 224.125 271.273 226.378 272.587 228.257 C 273.714 230.134 275.967 230.698 278.222 230.134 L 281.039 229.008 C 282.54 228.444 284.23 229.008 285.546 229.758 C 286.672 230.698 288.362 231.261 290.052 231.074 L 294.748 230.509 C 297.376 230.509 300.005 230.509 302.635 231.261 C 305.451 232.2 307.892 233.138 310.146 235.017 C 312.399 236.895 314.841 237.645 317.658 238.021 C 320.475 238.397 323.291 238.96 325.921 239.9 L 327.798 240.275 C 329.677 240.838 331.178 242.153 332.305 244.031 C 333.244 245.533 334.184 247.787 334.184 249.664 L 334.184 250.228 C 334.184 252.481 336.061 253.984 337.94 253.984 L 339.065 253.984 C 342.07 253.984 345.263 254.36 348.456 255.298 L 349.77 255.861 C 351.648 256.613 353.526 257.74 354.84 259.617 C 356.343 261.496 357.281 263.373 357.844 265.252 L 358.409 267.88 C 358.971 270.697 359.16 273.515 359.16 276.519 L 359.16 277.457 C 359.16 279.336 360.474 281.213 362.54 281.965 C 364.417 282.34 366.672 283.092 368.737 284.217 L 369.676 284.593 C 372.117 286.096 374.559 287.973 376.436 290.228 L 377.374 291.542 C 379.816 294.359 381.13 297.926 381.13 301.495 L 381.13 302.809 C 381.13 305.626 380.567 308.444 379.629 311.072 C 378.877 313.325 379.629 315.955 382.07 316.707 L 383.385 317.645 C 386.202 318.771 388.643 320.837 390.52 323.278 C 392.399 326.095 393.149 329.288 393.149 332.668 L 393.149 338.301 C 392.773 340.18 392.21 341.683 391.272 342.997 C 390.333 344.311 390.333 346.188 391.272 347.504 L 392.399 349.381 Z M 272.587 253.044 L 272.211 253.044 C 271.462 253.044 271.086 253.984 271.273 254.923 L 272.024 258.679 C 272.776 261.683 273.152 264.687 273.527 267.693 C 273.903 270.697 275.404 273.326 277.659 275.205 L 278.409 275.205 C 281.226 277.457 282.916 280.837 283.105 284.217 L 283.105 293.608 C 282.729 295.485 283.105 297.363 284.23 298.866 L 285.17 299.805 C 287.047 302.058 287.799 304.688 287.986 307.316 L 288.55 317.645 C 288.55 320.087 287.047 322.152 284.795 322.528 L 282.916 322.902 C 281.602 322.902 281.039 324.405 281.039 325.72 C 281.039 327.222 281.602 328.912 282.164 330.414 L 282.164 330.79 C 282.729 332.668 282.916 334.545 282.729 336.424 L 281.977 341.494 C 281.226 345.25 280.099 348.63 278.222 352.01 L 276.907 354.264 C 275.967 356.141 274.653 357.269 273.152 358.02 C 271.273 358.772 269.959 360.273 269.396 362.152 L 267.893 368.912 C 266.954 372.667 265.264 376.423 263.01 380.179 L 262.634 380.179 C 260.381 383.183 257.564 385.813 254.184 387.69 L 251.931 389.193 L 246.297 392.011 C 244.42 392.76 243.293 394.452 242.917 396.516 L 241.978 402.713 C 241.414 406.469 240.1 409.662 237.471 412.104 L 235.03 414.921 L 232.212 417.738 L 229.395 420.742 C 227.142 423.371 223.762 424.498 220.006 423.934 L 213.246 422.62 L 207.049 421.868 L 205.359 421.868 C 204.608 422.62 204.419 423.747 204.983 424.874 C 206.298 427.127 208.363 428.63 210.616 428.63 L 214.748 429.381 C 216.626 429.381 218.879 430.32 220.758 431.258 C 222.635 432.573 224.514 433.511 226.767 434.075 L 227.142 434.075 C 229.584 435.014 232.212 435.203 234.654 435.014 L 237.471 434.638 C 240.664 434.263 243.668 434.638 246.297 435.765 L 248.551 436.517 C 249.49 436.893 250.991 436.517 251.931 435.577 C 253.057 434.451 254.184 433.7 255.687 433.137 L 257.188 432.761 C 259.63 432.01 262.071 431.634 264.7 431.634 L 266.203 431.634 C 268.456 431.634 270.521 432.01 272.4 433.137 L 273.152 433.511 C 274.466 434.075 275.967 433.511 276.907 432.385 C 277.47 431.071 278.784 429.755 280.099 428.63 L 284.795 425.437 L 287.799 423.56 L 289.302 422.62 C 291.179 421.305 293.807 420.742 296.062 420.742 L 302.822 420.178 C 305.451 419.804 307.705 417.925 308.456 415.297 C 309.206 412.479 310.333 409.662 312.212 407.221 C 314.089 404.779 315.968 402.713 317.845 400.836 C 320.287 398.958 322.728 398.019 325.357 397.832 L 326.859 397.832 C 329.864 397.268 332.118 394.452 331.93 391.446 L 331.93 391.07 L 331.93 378.865 C 332.305 376.988 333.057 374.546 334.184 372.667 L 337.94 367.035 L 339.441 365.156 C 340.568 364.217 341.32 362.903 342.634 361.4 L 344.511 358.959 C 345.638 357.081 345.638 354.64 344.135 352.95 C 342.258 351.071 341.32 348.443 340.944 345.814 L 340.944 345.063 C 340.568 342.057 340.568 338.865 341.507 335.673 L 341.507 334.734 C 342.445 332.292 343.761 329.851 345.263 327.598 C 346.766 325.72 346.577 323.091 344.7 321.588 L 341.507 318.771 C 338.878 316.518 337.375 313.138 337 309.758 L 336.624 306.002 C 336.624 304.875 336.624 303.561 336.248 302.246 L 335.874 299.429 C 335.498 296.236 333.62 293.795 330.991 291.918 L 329.677 291.542 C 327.798 290.415 325.921 288.725 324.418 286.472 C 322.915 284.593 322.165 281.965 321.601 279.336 L 321.038 276.143 C 321.038 275.016 320.287 274.264 319.159 273.702 L 316.155 272.763 L 310.146 270.884 C 308.268 270.509 306.391 269.007 305.075 267.693 L 304.701 267.693 C 303.573 266.19 301.695 266.19 300.569 267.317 L 298.69 269.194 C 298.315 269.759 297.939 269.946 297.376 269.759 C 296.249 269.759 295.498 268.819 295.873 267.88 C 296.249 264.876 295.123 261.871 292.682 259.993 L 290.24 258.116 L 284.606 254.36 C 283.105 253.796 280.85 254.36 280.099 256.237 L 279.349 257.364 C 279.349 257.74 278.784 257.927 278.597 258.116 C 277.846 258.116 276.719 258.116 276.719 257.176 L 276.156 256.237 C 275.593 255.11 274.277 254.36 273.152 253.984 Z M 250.053 271.824 L 249.114 270.884 C 248.175 270.133 247.235 270.322 246.297 271.26 C 244.983 273.515 243.855 275.954 243.293 278.396 L 243.293 278.772 C 242.73 281.213 240.475 282.903 238.222 282.527 L 236.344 282.527 L 235.968 282.527 C 233.339 282.527 231.274 284.782 231.274 287.41 C 231.274 290.79 230.147 294.17 228.081 296.801 L 226.955 297.926 C 225.076 300.368 222.259 302.058 219.444 302.998 L 217.941 303.372 C 216.062 303.936 214.561 305.251 214.185 307.503 C 214.185 309.382 213.058 311.259 211.556 312.762 L 209.678 314.265 C 207.425 316.707 204.043 318.021 200.663 318.397 L 191.275 319.335 C 188.27 319.335 185.64 321.212 183.763 324.029 C 181.884 326.847 179.067 328.724 176.252 329.1 L 172.12 329.475 C 169.114 329.851 165.923 329.851 162.73 329.1 L 160.853 328.724 L 155.781 327.41 C 153.904 326.847 152.401 327.41 151.275 328.724 L 149.397 331.165 C 146.955 333.983 143.388 335.297 140.007 334.921 L 127.801 333.42 C 125.924 333.42 124.421 332.48 122.731 331.541 C 120.852 330.414 119.538 329.1 118.223 327.785 L 113.529 322.152 C 112.965 321.777 112.026 321.588 111.088 321.777 L 108.459 322.902 L 97.942 325.532 C 96.065 326.095 93.623 325.532 91.744 324.405 C 89.867 322.902 87.613 322.528 85.36 322.528 L 82.919 322.528 C 80.666 323.091 79.163 325.532 79.914 327.785 L 80.666 331.541 C 81.229 333.42 81.042 335.673 80.101 337.551 C 79.163 339.428 79.35 341.307 80.666 343.184 L 81.791 344.687 C 83.294 346.94 85.547 348.818 87.426 350.696 C 89.303 352.574 91.182 354.451 92.685 356.893 L 95.5 361.963 C 97.003 364.593 99.256 366.094 102.262 366.094 C 105.077 366.094 107.895 367.035 110.149 368.912 L 115.782 374.17 C 117.285 375.485 119.538 375.672 121.041 374.546 L 121.979 374.17 C 123.106 374.17 123.858 374.922 123.858 376.047 L 123.858 376.988 C 123.858 379.427 125.735 381.682 128.176 382.62 L 136.627 384.499 C 139.632 385.438 142.637 386.376 145.454 388.255 L 146.955 388.255 C 148.458 388.255 149.773 386.939 149.584 385.249 L 149.584 378.678 C 149.584 376.799 150.335 374.922 151.838 374.17 L 152.777 373.795 C 153.715 374.17 154.655 374.922 154.28 375.672 L 154.28 378.865 C 154.28 381.306 155.031 383.559 156.721 385.249 C 158.598 387.128 161.04 387.503 163.106 386.752 C 165.358 385.813 167.613 385.625 170.054 385.813 L 177.001 386.189 C 180.383 386.565 183.574 386.189 186.392 384.873 C 189.772 383.748 192.589 382.245 195.217 380.179 L 196.345 379.427 L 201.978 374.357 C 203.856 372.48 206.298 371.54 208.55 371.54 L 216.062 371.54 C 219.818 371.166 223.199 367.784 223.574 364.029 L 224.325 360.273 C 224.325 357.831 225.452 355.579 227.142 353.701 C 229.021 351.823 230.898 350.696 232.777 349.944 L 235.03 349.006 C 238.222 347.691 240.664 344.874 241.79 341.494 L 242.917 336.987 C 243.855 333.231 245.734 329.475 248.551 327.034 L 248.925 326.658 C 251.18 324.781 251.556 321.025 250.053 318.397 L 249.49 317.081 C 248.175 315.204 247.987 312.386 248.925 309.945 C 249.865 307.316 250.804 305.062 252.307 302.809 L 254.184 300.181 C 254.936 298.678 254.936 296.425 253.808 295.111 C 252.681 293.608 251.931 291.729 251.931 289.852 L 251.556 287.223 L 251.556 280.837 C 251.931 278.96 251.556 276.519 250.991 274.64 L 250.241 272.387 Z M 223.199 257.551 L 223.199 256.989 C 223.199 255.11 222.072 253.984 220.569 253.984 L 215.686 253.984 C 213.809 254.36 211.931 254.36 210.429 253.984 L 201.978 253.984 C 197.659 253.984 193.527 253.233 189.396 252.106 L 184.889 250.978 L 181.133 249.853 L 172.683 247.035 C 168.176 245.721 164.796 242.717 162.73 238.585 L 161.791 236.707 C 160.477 233.89 157.66 232.388 154.843 232.951 C 151.65 232.951 148.458 232.951 145.454 231.448 L 143.2 230.509 C 138.881 228.632 135.688 224.877 135.688 219.805 L 134.937 214.735 C 134.374 212.106 132.684 209.665 130.429 208.726 C 127.801 207.599 125.359 206.096 122.918 204.406 L 121.979 203.843 C 119.162 201.591 116.721 198.585 115.406 195.018 L 115.031 193.89 C 114.092 190.886 113.905 187.693 114.655 184.5 L 115.031 183.375 C 115.782 180.933 115.971 178.492 115.971 175.863 C 115.971 173.609 115.031 171.356 113.34 169.666 L 110.712 167.224 C 107.708 164.783 105.829 161.214 105.642 157.271 C 105.266 153.14 105.266 149.197 106.018 145.253 L 106.018 144.69 L 106.018 144.125 C 106.018 141.872 104.139 140.37 102.262 140.37 L 101.697 140.37 C 99.256 140.37 97.19 141.872 96.065 144.125 C 95.124 146.755 93.623 148.821 91.933 150.887 L 91.182 151.825 L 87.426 155.581 L 85.547 157.458 C 83.67 159.337 82.543 162.154 82.167 164.97 C 81.791 167.787 81.042 170.604 79.914 173.233 L 79.539 174.173 C 78.6 176.426 77.097 178.492 75.22 179.806 C 73.341 181.309 72.027 183.562 72.027 185.816 L 71.651 194.453 C 71.651 198.209 71.089 201.965 69.773 205.722 L 69.398 207.223 C 68.458 209.665 69.398 212.293 71.651 213.421 L 79.539 216.801 L 80.29 217.176 C 80.853 217.176 81.042 217.552 81.229 218.115 C 81.791 218.866 81.229 219.994 80.666 219.994 L 78.787 220.932 C 77.66 221.308 76.91 222.435 76.534 223.749 L 76.159 225.627 L 76.159 226.002 L 74.28 236.52 C 73.904 238.021 73.904 239.711 73.904 241.401 C 73.904 242.904 74.844 244.218 76.159 244.781 L 80.29 246.66 C 82.167 247.787 84.422 249.101 85.923 250.416 L 87.802 251.918 C 88.364 252.668 89.303 253.42 90.054 253.796 L 90.806 254.547 C 92.12 255.674 93.059 257.176 93.434 258.866 L 95.313 267.317 C 95.313 269.57 97.19 271.449 99.069 272.012 L 102.073 272.95 C 102.073 272.95 102.638 272.95 103.012 273.326 L 106.768 274.453 C 109.773 275.392 112.402 277.082 114.655 279.336 C 116.909 281.213 119.162 283.655 121.041 286.283 L 121.792 287.035 C 123.294 288.913 125.548 289.852 127.801 289.289 C 130.054 288.725 132.495 288.538 134.937 288.538 L 137.754 288.538 C 139.632 288.538 142.072 289.1 144.138 290.415 C 146.017 291.542 148.458 292.293 150.711 293.232 L 151.275 293.232 C 153.528 294.17 155.97 293.795 157.847 292.48 C 159.726 290.979 162.167 290.228 164.609 290.228 L 173.434 290.79 C 175.311 290.79 177.19 290.415 178.129 288.913 L 178.504 288.913 L 181.697 285.907 L 182.636 284.969 C 184.139 283.092 186.392 282.34 188.644 282.152 L 197.096 282.152 C 199.349 282.152 201.415 280.275 202.353 278.396 C 203.293 276.519 205.17 275.016 207.425 274.64 L 211.181 273.89 C 212.682 273.89 213.996 272.574 214.561 270.884 C 215.123 269.007 216.062 267.504 217.378 266.377 L 220.382 263.373 C 222.259 261.496 223.199 259.617 223.574 257.364 Z" style="fill: rgb(0, 158, 102);"/>
</svg>