<?xml version="1.0" encoding="utf-8"?>
<svg viewBox="0 0 500 500" xmlns="http://www.w3.org/2000/svg">
  <title>Codewars icon</title>
  <path d="M 221.099 11.869 C 110.698 23.87 21.895 112.671 9.894 220.675 C -2.106 333.477 62.696 434.279 161.099 472.68 C 168.299 475.081 175.499 470.28 175.499 460.68 L 175.499 422.279 C 175.499 422.279 165.898 424.68 153.899 424.68 C 120.297 424.68 105.897 395.879 103.496 379.078 C 101.097 369.477 96.296 362.277 89.096 355.077 C 81.895 352.676 79.497 352.676 79.497 350.278 C 79.497 345.476 86.697 345.476 89.096 345.476 C 103.496 345.476 115.497 362.277 120.297 369.477 C 132.298 388.679 146.699 393.478 153.899 393.478 C 163.498 393.478 170.698 391.078 175.499 388.679 C 177.898 371.878 185.098 355.077 199.499 345.476 C 144.298 333.477 103.496 302.275 103.496 249.475 C 103.496 223.074 115.497 196.674 132.298 177.474 C 129.898 172.673 127.497 160.673 127.497 143.872 C 127.497 134.271 127.497 119.871 134.697 105.471 C 134.697 105.471 168.299 105.471 201.899 136.672 C 213.899 131.872 230.7 129.472 247.501 129.472 C 264.3 129.472 281.101 131.872 295.501 136.672 C 326.702 105.471 362.703 105.471 362.703 105.471 C 367.503 119.871 367.503 134.271 367.503 143.872 C 367.503 163.072 365.104 172.673 362.703 177.474 C 379.504 196.674 391.504 220.675 391.504 249.475 C 391.504 302.275 350.703 333.477 295.501 345.476 C 309.902 357.478 319.502 379.078 319.502 400.679 L 319.502 463.079 C 319.502 470.28 326.702 477.48 336.303 475.081 C 425.104 439.08 487.506 352.676 487.506 251.874 C 487.506 107.871 365.104 -4.931 221.099 11.869 Z" style="fill: rgb(0, 158, 102);"/>
</svg>