<?xml version="1.0" encoding="utf-8"?>
<svg viewBox="0 0 500 500" xmlns="http://www.w3.org/2000/svg">
  <title>Codewars icon</title>
  <path d="M 65.743 18.022 C 37.143 18.022 13.977 41.188 13.977 69.788 L 13.977 432.152 C 13.977 460.754 37.143 483.919 65.743 483.919 L 428.107 483.919 C 456.708 483.919 479.874 460.754 479.874 432.152 L 479.874 69.788 C 479.874 41.188 456.708 18.022 428.107 18.022 L 65.743 18.022 Z M 65.743 69.788 L 428.107 69.788 L 428.107 432.152 L 65.743 432.152 L 65.743 69.788 Z M 137.68 103.862 C 115.498 103.862 102.192 117.196 102.192 134.951 C 102.192 152.706 115.5 165.991 135.456 165.991 C 157.638 165.991 170.944 152.706 170.944 134.951 C 170.944 117.196 157.636 103.862 137.68 103.862 Z M 103.961 199.204 L 103.961 380.387 L 169.276 380.387 L 169.276 199.204 L 103.961 199.204 Z M 223.165 199.204 L 223.165 380.387 L 288.478 380.387 L 288.478 281.354 C 288.478 251.871 309.512 247.634 315.829 247.634 C 322.145 247.634 339.033 253.968 339.033 281.354 L 339.033 380.387 L 402.225 380.387 L 402.225 281.354 C 402.225 224.487 376.955 199.204 345.353 199.204 C 313.749 199.204 296.891 209.727 288.478 224.482 L 288.478 199.204 L 223.165 199.204 Z" style="fill: rgb(0, 158, 102);"/>
</svg>