<?xml version="1.0" encoding="utf-8"?>
<svg viewBox="0 0 500 500" xmlns="http://www.w3.org/2000/svg" xmlns:bx="https://boxy-svg.com">
  <title>Codewars icon</title>
  <path d="M 435.924 45.308 C 428.563 44.527 420.561 45.677 412.521 48.855 C 402.554 52.776 246.378 118.473 100.794 179.758 L 52.69 200.003 C 34.063 207.557 24.658 219.839 24.658 236.384 C 24.658 247.969 29.56 263.68 52.95 272.938 L 134.147 305.469 C 141.168 326.533 157.476 375.44 161.573 388.441 C 164.01 396.149 170.164 415.566 185.713 420.107 C 188.902 421.192 192.23 421.751 195.619 421.751 C 205.431 421.751 212.496 417.185 215.95 414.527 L 267.559 370.878 L 330.242 428.846 C 332.656 431.304 345.435 443.726 362.599 443.726 C 384.018 443.726 400.264 425.897 403.653 408.643 C 405.491 399.186 465.946 95.704 465.946 95.748 C 471.373 71.407 461.616 58.78 455.347 53.398 C 449.977 48.802 443.286 46.089 435.924 45.308 Z M 421.259 93.153 C 412.909 135.014 367.391 363.508 360.48 396.444 L 268.856 311.699 L 206.693 364.346 L 223.911 296.991 C 223.911 296.991 342.684 176.764 349.838 169.765 C 355.597 164.162 356.803 162.197 356.803 160.248 C 356.803 157.657 355.469 155.792 352.391 155.792 C 349.622 155.792 345.862 158.446 343.868 159.686 C 318.545 175.474 210.712 236.906 157.637 267.098 L 80.636 236.341 L 118.012 220.638 C 213.229 180.549 382.809 109.144 421.259 93.153 Z" style="fill: rgb(0, 158, 102);" bx:origin="2.701 3.305"/>
</svg>